<svg width="792" height="895" viewBox="0 0 792 895" fill="none" xmlns="http://www.w3.org/2000/svg">
<path d="M858.788 780.338H0V780.969H858.788V780.338Z" fill="#EBEBEB"/>
<path d="M772.737 820.948H715.851V821.579H772.737V820.948Z" fill="#EBEBEB"/>
<path d="M568.895 827.813H553.97V828.444H568.895V827.813Z" fill="#EBEBEB"/>
<path d="M714.134 797.526H681.173V798.157H714.134V797.526Z" fill="#EBEBEB"/>
<path d="M164.286 801.766H90.104V802.397H164.286V801.766Z" fill="#EBEBEB"/>
<path d="M190.462 801.766H179.59V802.397H190.462V801.766Z" fill="#EBEBEB"/>
<path d="M386.712 812.417H225.81V813.048H386.712V812.417Z" fill="#EBEBEB"/>
<path d="M407.066 667.77H75.4188C72.8207 667.763 70.3306 666.242 68.4951 663.54C66.6596 660.838 65.6287 657.176 65.6287 653.358V-31.7145C65.6513 -35.5104 66.6922 -39.14 68.5253 -41.8148C70.3583 -44.4895 72.8356 -45.9935 75.4188 -46H407.066C409.667 -46 412.161 -44.4816 414 -41.7789C415.84 -39.0762 416.873 -35.4105 416.873 -31.5883V653.358C416.873 657.18 415.84 660.846 414 663.549C412.161 666.252 409.667 667.77 407.066 667.77ZM75.4188 -45.4952C72.9346 -45.4885 70.5537 -44.0337 68.7987 -41.45C67.0437 -38.8664 66.0581 -35.365 66.0581 -31.7145V653.358C66.0581 657.009 67.0437 660.51 68.7987 663.094C70.5537 665.677 72.9346 667.132 75.4188 667.139H407.066C409.551 667.132 411.934 665.678 413.692 663.095C415.449 660.512 416.439 657.011 416.444 653.358V-31.7145C416.439 -35.3673 415.449 -38.8686 413.692 -41.4516C411.934 -44.0345 409.551 -45.4885 407.066 -45.4952H75.4188Z" fill="#EBEBEB"/>
<path d="M778.594 667.77H446.93C444.331 667.763 441.839 666.243 440.001 663.542C438.162 660.84 437.128 657.178 437.123 653.358V-31.7145C437.15 -35.5127 438.195 -39.1423 440.031 -41.8163C441.867 -44.4904 444.345 -45.9936 446.93 -46H778.594C781.175 -45.9869 783.647 -44.48 785.477 -41.8059C787.306 -39.1318 788.345 -35.5061 788.367 -31.7145V653.358C788.367 657.172 787.339 660.83 785.507 663.531C783.675 666.232 781.189 667.757 778.594 667.77ZM446.93 -45.4952C444.445 -45.4885 442.062 -44.0345 440.304 -41.4516C438.546 -38.8686 437.557 -35.3673 437.552 -31.7145V653.358C437.557 657.011 438.546 660.512 440.304 663.095C442.062 665.678 444.445 667.132 446.93 667.139H778.594C781.08 667.132 783.463 665.678 785.22 663.095C786.978 660.512 787.968 657.011 787.972 653.358V-31.7145C787.968 -35.3673 786.978 -38.8686 785.22 -41.4516C783.463 -44.0345 781.08 -45.4885 778.594 -45.4952H446.93Z" fill="#EBEBEB"/>
<path d="M724.714 122.574H465.789V460.201H724.714V122.574Z" fill="#E6E6E6"/>
<path d="M717.895 131.837H472.265V451.14H717.895V131.837Z" fill="#F0F0F0"/>
<path d="M529.906 131.837L472.265 450.434V300.713L502.7 131.837H529.906Z" fill="white"/>
<path d="M550.329 131.837L492.171 451.14H482.896L541.054 131.837H550.329Z" fill="white"/>
<path d="M717.895 333.298V384.332L706.13 451.14H696.838L717.895 333.298Z" fill="white"/>
<path d="M557.937 126.082H553.798V458.258H557.937V126.082Z" fill="#E6E6E6"/>
<path d="M638.131 126.082H633.991V458.258H638.131V126.082Z" fill="#E6E6E6"/>
<path d="M409.865 238.751H134.074V357.83H409.865V238.751Z" fill="#E6E6E6"/>
<path d="M409.865 238.751H165.815V357.83H409.865V238.751Z" fill="#EBEBEB"/>
<path d="M404.712 350.258V246.323L170.968 246.323V350.258H404.712Z" fill="#E0E0E0"/>
<path d="M217.926 246.323H213.855V350.258H217.926V246.323Z" fill="#EBEBEB"/>
<path d="M285.633 324.009V318.028H214.903V324.009H285.633Z" fill="#EBEBEB"/>
<path d="M358.819 281.759V275.777H288.089V281.759H358.819Z" fill="#EBEBEB"/>
<path d="M290.116 246.323H286.045V350.258H290.116V246.323Z" fill="#EBEBEB"/>
<path d="M364.023 246.323H359.953V350.258H364.023V246.323Z" fill="#EBEBEB"/>
<path d="M260.89 201.82C275.182 196.863 284.033 175.82 280.66 154.819C277.286 133.818 262.966 120.811 248.675 125.768C234.383 130.725 225.532 151.768 228.905 172.769C232.279 193.77 246.598 206.776 260.89 201.82Z" fill="#E0E0E0"/>
<path d="M258.411 196.52C270.733 193.58 279.101 176.519 277.1 158.412C275.1 140.305 263.49 128.009 251.167 130.948C238.845 133.887 230.478 150.948 232.478 169.056C234.478 187.163 246.089 199.459 258.411 196.52Z" fill="#F0F0F0"/>
<path d="M253.72 186.53V163.31L243.243 172.018" fill="#F0F0F0"/>
<path d="M253.72 187.792C253.493 187.792 253.274 187.659 253.113 187.423C252.952 187.186 252.861 186.865 252.861 186.53V165.481L243.672 173.053C243.575 173.137 243.467 173.192 243.354 173.213C243.242 173.235 243.128 173.223 243.019 173.178C242.91 173.133 242.808 173.057 242.72 172.953C242.631 172.849 242.558 172.72 242.504 172.573C242.447 172.43 242.41 172.271 242.395 172.106C242.381 171.941 242.389 171.773 242.419 171.613C242.45 171.453 242.502 171.303 242.573 171.173C242.643 171.043 242.731 170.936 242.831 170.857L253.291 162.149C253.421 162.038 253.57 161.98 253.72 161.98C253.871 161.98 254.019 162.038 254.15 162.149C254.277 162.263 254.383 162.422 254.458 162.612C254.533 162.801 254.575 163.015 254.579 163.235V186.455C254.586 186.627 254.569 186.799 254.529 186.961C254.489 187.123 254.427 187.271 254.346 187.396C254.266 187.522 254.169 187.622 254.061 187.69C253.954 187.758 253.838 187.793 253.72 187.792Z" fill="#E0E0E0"/>
<path d="M429.394 894.319C613.316 894.319 762.415 881.527 762.415 865.748C762.415 849.968 613.316 837.177 429.394 837.177C245.472 837.177 96.3733 849.968 96.3733 865.748C96.3733 881.527 245.472 894.319 429.394 894.319Z" fill="#F5F5F5"/>
<path d="M479.101 410.833V402.58H469.242V410.833C469.243 413.155 468.825 415.437 468.032 417.445C467.239 419.453 466.097 421.117 464.725 422.267C463.35 423.415 462.208 425.078 461.415 427.086C460.621 429.095 460.204 431.377 460.207 433.7V510.68C460.205 511.825 460.357 512.958 460.654 514.016C460.951 515.074 461.387 516.036 461.938 516.845C462.489 517.654 463.143 518.295 463.863 518.732C464.583 519.168 465.354 519.391 466.133 519.388H482.209C482.988 519.391 483.76 519.168 484.48 518.732C485.2 518.295 485.854 517.654 486.405 516.845C486.955 516.036 487.392 515.074 487.689 514.016C487.986 512.958 488.137 511.825 488.135 510.68V433.7C488.134 431.378 487.716 429.098 486.923 427.09C486.13 425.083 484.99 423.419 483.618 422.267C482.245 421.117 481.104 419.453 480.31 417.445C479.517 415.437 479.1 413.155 479.101 410.833Z" fill="#407BFF"/>
<path opacity="0.7" d="M479.101 410.833V402.58H469.242V410.833C469.243 413.155 468.825 415.437 468.032 417.445C467.239 419.453 466.097 421.117 464.725 422.267C463.35 423.415 462.208 425.078 461.415 427.086C460.621 429.095 460.204 431.377 460.207 433.7V510.68C460.205 511.825 460.357 512.958 460.654 514.016C460.951 515.074 461.387 516.036 461.938 516.845C462.489 517.654 463.143 518.295 463.863 518.732C464.583 519.168 465.354 519.391 466.133 519.388H482.209C482.988 519.391 483.76 519.168 484.48 518.732C485.2 518.295 485.854 517.654 486.405 516.845C486.955 516.036 487.392 515.074 487.689 514.016C487.986 512.958 488.137 511.825 488.135 510.68V433.7C488.134 431.378 487.716 429.098 486.923 427.09C486.13 425.083 484.99 423.419 483.618 422.267C482.245 421.117 481.104 419.453 480.31 417.445C479.517 415.437 479.1 413.155 479.101 410.833Z" fill="white"/>
<path d="M479.478 397.38H468.847V407.148H479.478V397.38Z" fill="#407BFF"/>
<path opacity="0.2" d="M488.135 456.971H460.207V468.177H488.135V456.971Z" fill="white"/>
<path opacity="0.2" d="M488.135 470.07H460.207V481.276H488.135V470.07Z" fill="white"/>
<path opacity="0.2" d="M488.135 483.169H460.207V494.375H488.135V483.169Z" fill="white"/>
<path d="M516.887 519.362H500.124L498.097 481.276H518.931L516.887 519.362Z" fill="#407BFF"/>
<path opacity="0.7" d="M518.931 481.276L518.347 492.23L516.887 519.362H500.141L498.681 492.23L498.097 481.276H518.931Z" fill="white"/>
<path opacity="0.2" d="M518.347 492.23L516.887 519.363H500.141L498.681 492.23H518.347Z" fill="white"/>
<path d="M520.494 483.169H496.534L498.252 478.449H518.777L520.494 483.169Z" fill="#407BFF"/>
<path d="M587.772 492.23H531.779C530.719 492.237 529.704 492.858 528.954 493.96C528.204 495.061 527.781 496.553 527.777 498.111V867.666H538.082V841.417H581.606V867.666H591.911V498.111C591.909 497.322 591.8 496.542 591.589 495.817C591.379 495.092 591.071 494.436 590.686 493.887C590.3 493.339 589.843 492.91 589.343 492.626C588.842 492.341 588.308 492.207 587.772 492.23Z" fill="#263238"/>
<path opacity="0.7" d="M587.772 492.23H531.779C530.719 492.237 529.704 492.858 528.954 493.96C528.204 495.061 527.781 496.553 527.777 498.111V867.666H538.082V841.417H581.606V867.666H591.911V498.111C591.909 497.322 591.8 496.542 591.589 495.817C591.379 495.092 591.071 494.436 590.686 493.887C590.3 493.339 589.843 492.91 589.343 492.626C588.842 492.341 588.308 492.207 587.772 492.23Z" fill="white"/>
<path opacity="0.4" d="M584.337 492.23H531.779C530.719 492.237 529.704 492.858 528.954 493.96C528.204 495.061 527.781 496.553 527.777 498.111V867.666H534.647V841.417H581.606V867.666H588.476V498.111C588.474 497.322 588.364 496.542 588.154 495.817C587.944 495.092 587.636 494.436 587.25 493.887C586.865 493.339 586.408 492.91 585.908 492.626C585.407 492.341 584.873 492.207 584.337 492.23Z" fill="white"/>
<path d="M582.241 519.362H426.491V840.761H582.241V519.362Z" fill="#263238"/>
<path opacity="0.75" d="M582.241 519.362H426.491V840.761H582.241V519.362Z" fill="white"/>
<path d="M481.213 492.23H425.237C424.174 492.23 423.155 492.849 422.401 493.951C421.648 495.053 421.223 496.549 421.218 498.111V867.666H431.524V841.417H475.047V867.666H485.353V498.111C485.353 497.321 485.245 496.54 485.035 495.813C484.826 495.086 484.518 494.428 484.132 493.879C483.746 493.331 483.288 492.902 482.787 492.618C482.285 492.335 481.75 492.203 481.213 492.23Z" fill="#263238"/>
<path opacity="0.7" d="M481.213 492.23H425.237C424.174 492.23 423.155 492.849 422.401 493.951C421.648 495.053 421.223 496.549 421.218 498.111V867.666H431.524V841.417H475.047V867.666H485.353V498.111C485.353 497.321 485.245 496.54 485.035 495.813C484.826 495.086 484.518 494.428 484.132 493.879C483.746 493.331 483.288 492.902 482.787 492.618C482.285 492.335 481.75 492.203 481.213 492.23Z" fill="white"/>
<path opacity="0.4" d="M477.778 492.23H425.237C424.174 492.23 423.155 492.849 422.401 493.951C421.648 495.053 421.223 496.549 421.218 498.111V867.666H428.089V841.417H475.047V867.666H481.917V498.111C481.915 497.322 481.806 496.542 481.595 495.817C481.385 495.092 481.078 494.436 480.692 493.887C480.306 493.339 479.849 492.91 479.349 492.626C478.849 492.341 478.314 492.207 477.778 492.23Z" fill="white"/>
<path opacity="0.2" d="M574.993 528.878H487.757V568.024H574.993V528.878Z" fill="white"/>
<path opacity="0.2" d="M574.993 576.807H487.757V829.605H574.993V576.807Z" fill="white"/>
<path d="M449.575 749.419C448.27 748.839 447.48 747.855 447.48 746.895V683.797C447.479 683.553 447.514 683.312 447.583 683.09C447.722 682.677 447.929 682.322 448.184 682.055C448.616 681.627 449.091 681.304 449.593 681.096C450.191 680.836 450.808 680.675 451.43 680.617H667.192C667.825 680.69 668.452 680.851 669.064 681.096C669.552 681.314 670.015 681.638 670.438 682.055C670.69 682.329 670.895 682.683 671.04 683.09C671.111 683.31 671.14 683.554 671.125 683.797V746.895C671.125 747.955 670.353 748.94 669.047 749.419C667.62 749.998 666.121 750.084 664.667 749.672L559.311 718.577L453.955 749.672C453.344 749.846 452.723 749.93 452.1 749.924C451.247 749.93 450.397 749.76 449.575 749.419ZM456.721 688.315V741.999L547.752 715.17L456.721 688.315ZM570.888 715.17L661.919 741.999V688.315L570.888 715.17ZM474.309 686.674L559.311 711.762L644.297 686.674H474.309Z" fill="#263238"/>
<g opacity="0.3">
<path d="M449.575 749.419C448.27 748.839 447.48 747.855 447.48 746.895V683.797C447.479 683.553 447.514 683.312 447.583 683.09C447.722 682.677 447.929 682.322 448.184 682.055C448.616 681.627 449.091 681.304 449.593 681.096C450.191 680.836 450.808 680.675 451.43 680.617H667.192C667.825 680.69 668.452 680.851 669.064 681.096C669.552 681.314 670.015 681.638 670.438 682.055C670.69 682.329 670.895 682.683 671.04 683.09C671.111 683.31 671.14 683.554 671.125 683.797V746.895C671.125 747.955 670.353 748.94 669.047 749.419C667.62 749.998 666.121 750.084 664.667 749.672L559.311 718.577L453.955 749.672C453.344 749.846 452.723 749.93 452.1 749.924C451.247 749.93 450.397 749.76 449.575 749.419ZM456.721 688.315V741.999L547.752 715.17L456.721 688.315ZM570.888 715.17L661.919 741.999V688.315L570.888 715.17ZM474.309 686.674L559.311 711.762L644.297 686.674H474.309Z" fill="white"/>
</g>
<path d="M421.321 676.806H733.766C734.373 676.802 734.975 676.976 735.536 677.316C736.098 677.656 736.608 678.156 737.038 678.787C737.467 679.418 737.807 680.168 738.039 680.993C738.27 681.818 738.388 682.703 738.386 683.595C738.386 685.396 737.899 687.123 737.033 688.396C736.166 689.669 734.991 690.384 733.766 690.384H421.321C420.096 690.384 418.921 689.669 418.054 688.396C417.188 687.123 416.701 685.396 416.701 683.595C416.699 682.703 416.817 681.818 417.048 680.993C417.28 680.168 417.62 679.418 418.049 678.787C418.479 678.156 418.989 677.656 419.551 677.316C420.112 676.976 420.714 676.802 421.321 676.806Z" fill="#263238"/>
<g opacity="0.3">
<path d="M421.321 676.806H733.766C734.373 676.802 734.975 676.976 735.536 677.316C736.098 677.656 736.608 678.156 737.038 678.787C737.467 679.418 737.807 680.168 738.039 680.993C738.27 681.818 738.388 682.703 738.386 683.595C738.386 685.396 737.899 687.123 737.033 688.396C736.166 689.669 734.991 690.384 733.766 690.384H421.321C420.096 690.384 418.921 689.669 418.054 688.396C417.188 687.123 416.701 685.396 416.701 683.595C416.699 682.703 416.817 681.818 417.048 680.993C417.28 680.168 417.62 679.418 418.049 678.787C418.479 678.156 418.989 677.656 419.551 677.316C420.112 676.976 420.714 676.802 421.321 676.806Z" fill="white"/>
</g>
<path d="M712.33 799.949C713.597 799.949 714.814 799.22 715.719 797.918C716.625 796.616 717.147 794.844 717.174 792.983L718.015 743.311C718.031 742.36 717.917 741.413 717.68 740.527C717.443 739.642 717.087 738.835 716.634 738.155C716.181 737.475 715.639 736.935 715.042 736.568C714.444 736.201 713.802 736.014 713.155 736.017H452.083C451.244 736.017 450.419 736.338 449.69 736.949C448.962 737.559 448.354 738.439 447.927 739.5L429.222 785.613C428.564 787.236 428.372 789.177 428.687 791.009C429.003 792.84 429.801 794.413 430.905 795.38C432.01 796.347 433.331 796.63 434.578 796.166C435.824 795.703 436.894 794.53 437.552 792.907L454.848 750.252H708.191L707.487 792.629C707.454 794.519 707.933 796.351 708.819 797.723C709.704 799.096 710.924 799.896 712.21 799.949H712.33Z" fill="#263238"/>
<g opacity="0.3">
<path d="M712.33 799.949C713.597 799.949 714.814 799.22 715.719 797.918C716.625 796.616 717.147 794.844 717.174 792.983L718.015 743.311C718.031 742.36 717.917 741.413 717.68 740.527C717.443 739.642 717.087 738.835 716.634 738.155C716.181 737.475 715.639 736.935 715.042 736.568C714.444 736.201 713.802 736.014 713.155 736.017H452.083C451.244 736.017 450.419 736.338 449.69 736.949C448.962 737.559 448.354 738.439 447.927 739.5L429.222 785.613C428.564 787.236 428.372 789.177 428.687 791.009C429.003 792.84 429.801 794.413 430.905 795.38C432.01 796.347 433.331 796.63 434.578 796.166C435.824 795.703 436.894 794.53 437.552 792.907L454.848 750.252H708.191L707.487 792.629C707.454 794.519 707.933 796.351 708.819 797.723C709.704 799.096 710.924 799.896 712.21 799.949H712.33Z" fill="white"/>
</g>
<path d="M187.216 434.306V694.953C187.216 702.298 190.067 708.254 193.554 708.254H397.241C400.676 708.254 403.579 702.298 403.579 694.953V434.306C403.579 426.986 400.728 421.03 397.241 421.03H193.485C189.999 420.929 187.216 426.986 187.216 434.306ZM360.502 450.333C360.502 443.569 363.096 438.092 366.325 438.092H386.936C387.769 438.154 388.579 438.513 389.297 439.137C390.016 439.761 390.62 440.632 391.058 441.676C392.215 444.238 392.815 447.258 392.776 450.333C392.776 457.097 390.165 462.549 386.936 462.549H366.325C365.492 462.486 364.681 462.127 363.963 461.503C363.245 460.879 362.641 460.008 362.203 458.965C361.03 456.418 360.413 453.407 360.434 450.333H360.502ZM198.037 450.333C198.037 443.569 200.648 438.092 203.859 438.092H224.47C225.304 438.154 226.114 438.513 226.832 439.137C227.55 439.761 228.154 440.632 228.592 441.676C229.743 444.243 230.341 447.259 230.31 450.333C230.31 457.097 227.699 462.549 224.487 462.549H203.877C203.043 462.486 202.233 462.127 201.515 461.503C200.797 460.879 200.193 460.008 199.754 458.965C198.576 456.421 197.953 453.41 197.968 450.333H198.037Z" fill="#407BFF"/>
<path opacity="0.6" d="M187.216 434.306V694.953C187.216 702.298 190.067 708.254 193.554 708.254H397.241C400.676 708.254 403.579 702.298 403.579 694.953V434.306C403.579 426.986 400.728 421.03 397.241 421.03H193.485C189.999 420.929 187.216 426.986 187.216 434.306ZM360.502 450.333C360.502 443.569 363.096 438.092 366.325 438.092H386.936C387.769 438.154 388.579 438.513 389.297 439.137C390.016 439.761 390.62 440.632 391.058 441.676C392.215 444.238 392.815 447.258 392.776 450.333C392.776 457.097 390.165 462.549 386.936 462.549H366.325C365.492 462.486 364.681 462.127 363.963 461.503C363.245 460.879 362.641 460.008 362.203 458.965C361.03 456.418 360.413 453.407 360.434 450.333H360.502ZM198.037 450.333C198.037 443.569 200.648 438.092 203.859 438.092H224.47C225.304 438.154 226.114 438.513 226.832 439.137C227.55 439.761 228.154 440.632 228.592 441.676C229.743 444.243 230.341 447.259 230.31 450.333C230.31 457.097 227.699 462.549 224.487 462.549H203.877C203.043 462.486 202.233 462.127 201.515 461.503C200.797 460.879 200.193 460.008 199.754 458.965C198.576 456.421 197.953 453.41 197.968 450.333H198.037Z" fill="white"/>
<path d="M190.548 434.306V694.953C190.548 702.298 193.399 708.254 196.886 708.254H400.642C404.077 708.254 406.98 702.298 406.98 694.953V434.306C406.98 426.986 404.129 421.03 400.642 421.03H196.886C193.399 420.929 190.548 426.986 190.548 434.306ZM363.834 450.333C363.834 443.569 366.445 438.092 369.674 438.092H390.285C391.118 438.154 391.929 438.513 392.647 439.137C393.365 439.761 393.969 440.632 394.407 441.676C395.565 444.238 396.164 447.258 396.125 450.333C396.125 457.097 393.514 462.549 390.285 462.549H369.674C368.838 462.49 368.024 462.133 367.303 461.509C366.581 460.884 365.975 460.011 365.535 458.965C364.387 456.406 363.794 453.396 363.834 450.333ZM201.369 450.333C201.369 443.569 203.98 438.092 207.191 438.092H227.802C228.636 438.154 229.446 438.513 230.164 439.137C230.882 439.761 231.486 440.632 231.924 441.676C233.075 444.243 233.674 447.259 233.642 450.333C233.642 457.097 231.031 462.549 227.819 462.549H207.209C206.375 462.486 205.565 462.127 204.847 461.503C204.129 460.879 203.525 460.008 203.086 458.965C201.932 456.409 201.333 453.399 201.369 450.333Z" fill="#407BFF"/>
<path opacity="0.7" d="M190.548 434.306V694.953C190.548 702.298 193.399 708.254 196.886 708.254H400.642C404.077 708.254 406.98 702.298 406.98 694.953V434.306C406.98 426.986 404.129 421.03 400.642 421.03H196.886C193.399 420.929 190.548 426.986 190.548 434.306ZM363.834 450.333C363.834 443.569 366.445 438.092 369.674 438.092H390.285C391.118 438.154 391.929 438.513 392.647 439.137C393.365 439.761 393.969 440.632 394.407 441.676C395.565 444.238 396.164 447.258 396.125 450.333C396.125 457.097 393.514 462.549 390.285 462.549H369.674C368.838 462.49 368.024 462.133 367.303 461.509C366.581 460.884 365.975 460.011 365.535 458.965C364.387 456.406 363.794 453.396 363.834 450.333ZM201.369 450.333C201.369 443.569 203.98 438.092 207.191 438.092H227.802C228.636 438.154 229.446 438.513 230.164 439.137C230.882 439.761 231.486 440.632 231.924 441.676C233.075 444.243 233.674 447.259 233.642 450.333C233.642 457.097 231.031 462.549 227.819 462.549H207.209C206.375 462.486 205.565 462.127 204.847 461.503C204.129 460.879 203.525 460.008 203.086 458.965C201.932 456.409 201.333 453.399 201.369 450.333Z" fill="white"/>
<path opacity="0.1" d="M206.436 664.085H391.092C393.89 664.085 396.159 660.752 396.159 656.639V588.266C396.159 584.154 393.89 580.82 391.092 580.82H206.436C203.637 580.82 201.369 584.154 201.369 588.266V656.639C201.369 660.752 203.637 664.085 206.436 664.085Z" fill="black"/>
<path d="M406.98 678.926H190.548V682.914H406.98V678.926Z" fill="#407BFF"/>
<path d="M243.329 749.419C242.041 748.839 241.251 747.855 241.251 746.895V683.797C241.208 683.565 241.208 683.322 241.251 683.09C241.395 682.683 241.601 682.329 241.852 682.055C242.287 681.637 242.762 681.314 243.26 681.096C243.859 680.836 244.475 680.675 245.098 680.617H460.946C461.579 680.685 462.206 680.846 462.818 681.096C463.307 681.308 463.771 681.632 464.192 682.055C464.453 682.313 464.661 682.671 464.793 683.09C464.862 683.312 464.897 683.553 464.896 683.797V746.895C464.896 747.955 464.106 748.94 462.801 749.419C461.379 749.997 459.886 750.084 458.438 749.672L353.065 718.577L247.709 749.672C246.255 750.079 244.757 749.992 243.329 749.419ZM250.491 688.315V741.999L341.523 715.17L250.491 688.315ZM364.659 715.17L455.69 741.999V688.315L364.659 715.17ZM268.079 686.674L353.065 711.762L438.068 686.674H268.079Z" fill="#263238"/>
<g opacity="0.5">
<path d="M243.329 749.419C242.041 748.839 241.251 747.855 241.251 746.895V683.797C241.208 683.565 241.208 683.322 241.251 683.09C241.395 682.683 241.601 682.329 241.852 682.055C242.287 681.637 242.762 681.314 243.26 681.096C243.859 680.836 244.475 680.675 245.098 680.617H460.946C461.579 680.685 462.206 680.846 462.818 681.096C463.307 681.308 463.771 681.632 464.192 682.055C464.453 682.313 464.661 682.671 464.793 683.09C464.862 683.312 464.897 683.553 464.896 683.797V746.895C464.896 747.955 464.106 748.94 462.801 749.419C461.379 749.997 459.886 750.084 458.438 749.672L353.065 718.577L247.709 749.672C246.255 750.079 244.757 749.992 243.329 749.419ZM250.491 688.315V741.999L341.523 715.17L250.491 688.315ZM364.659 715.17L455.69 741.999V688.315L364.659 715.17ZM268.079 686.674L353.065 711.762L438.068 686.674H268.079Z" fill="white"/>
</g>
<path d="M215.075 676.806H527.536C528.762 676.806 529.937 677.521 530.803 678.794C531.67 680.067 532.156 681.794 532.156 683.595C532.152 685.394 531.664 687.117 530.798 688.388C529.933 689.66 528.76 690.378 527.536 690.384H215.075C213.851 690.378 212.678 689.66 211.813 688.388C210.947 687.117 210.459 685.394 210.455 683.595C210.455 681.794 210.941 680.067 211.808 678.794C212.674 677.521 213.849 676.806 215.075 676.806Z" fill="#263238"/>
<g opacity="0.6">
<path d="M215.075 676.806H527.536C528.762 676.806 529.937 677.521 530.803 678.794C531.67 680.067 532.156 681.794 532.156 683.595C532.152 685.394 531.664 687.117 530.798 688.388C529.933 689.66 528.76 690.378 527.536 690.384H215.075C213.851 690.378 212.678 689.66 211.813 688.388C210.947 687.117 210.459 685.394 210.455 683.595C210.455 681.794 210.941 680.067 211.808 678.794C212.674 677.521 213.849 676.806 215.075 676.806Z" fill="white"/>
</g>
<path d="M506.101 799.949C507.367 799.943 508.581 799.211 509.485 797.911C510.39 796.61 510.913 794.842 510.945 792.983L511.769 743.312C511.785 742.362 511.672 741.417 511.436 740.533C511.199 739.649 510.845 738.844 510.394 738.164C509.942 737.484 509.403 736.944 508.807 736.575C508.212 736.207 507.572 736.017 506.926 736.017H245.854C245.012 736.015 244.185 736.335 243.453 736.946C242.721 737.556 242.11 738.437 241.68 739.5L222.993 785.613C222.335 787.236 222.143 789.177 222.458 791.009C222.774 792.841 223.572 794.413 224.676 795.38C225.781 796.348 227.102 796.63 228.349 796.167C229.595 795.703 230.665 794.53 231.323 792.907L248.602 750.252H501.945L501.223 792.629C501.191 794.519 501.67 796.351 502.555 797.724C503.441 799.096 504.66 799.896 505.947 799.949H506.101Z" fill="#263238"/>
<g opacity="0.6">
<path d="M506.101 799.949C507.367 799.943 508.581 799.211 509.485 797.911C510.39 796.61 510.913 794.842 510.945 792.983L511.769 743.312C511.785 742.362 511.672 741.417 511.436 740.533C511.199 739.649 510.845 738.844 510.394 738.164C509.942 737.484 509.403 736.944 508.807 736.575C508.212 736.207 507.572 736.017 506.926 736.017H245.854C245.012 736.015 244.185 736.335 243.453 736.946C242.721 737.556 242.11 738.437 241.68 739.5L222.993 785.613C222.335 787.236 222.143 789.177 222.458 791.009C222.774 792.841 223.572 794.413 224.676 795.38C225.781 796.348 227.102 796.63 228.349 796.167C229.595 795.703 230.665 794.53 231.323 792.907L248.602 750.252H501.945L501.223 792.629C501.191 794.519 501.67 796.351 502.555 797.724C503.441 799.096 504.66 799.896 505.947 799.949H506.101Z" fill="white"/>
</g>
<path d="M220.039 637.104L561.527 637.104C563.282 637.104 564.705 635.014 564.705 632.435V591.648C564.705 589.069 563.282 586.979 561.527 586.979L220.039 586.979C218.284 586.979 216.861 589.069 216.861 591.648V632.435C216.861 635.014 218.284 637.104 220.039 637.104Z" fill="#263238"/>
<path opacity="0.2" d="M220.039 637.104L561.527 637.104C563.282 637.104 564.705 635.014 564.705 632.435V591.648C564.705 589.069 563.282 586.979 561.527 586.979L220.039 586.979C218.284 586.979 216.861 589.069 216.861 591.648V632.435C216.861 635.014 218.284 637.104 220.039 637.104Z" fill="white"/>
<path d="M332.265 639.249L724.353 639.249C726.383 639.249 728.029 636.831 728.029 633.848V589.982C728.029 586.999 726.383 584.581 724.353 584.581L332.265 584.581C330.235 584.581 328.589 586.999 328.589 589.982V633.848C328.589 636.831 330.235 639.249 332.265 639.249Z" fill="#407BFF"/>
<path opacity="0.2" d="M332.265 639.249L724.353 639.249C726.383 639.249 728.029 636.831 728.029 633.848V589.982C728.029 586.999 726.383 584.581 724.353 584.581L332.265 584.581C330.235 584.581 328.589 586.999 328.589 589.982V633.848C328.589 636.831 330.235 639.249 332.265 639.249Z" fill="white"/>
<path d="M453.612 837.126L446.192 848.03H441.383L439.287 830.514L453.612 837.126Z" fill="#407BFF"/>
<path d="M433.362 824.33H438.978C445.505 824.33 450.795 834.047 450.795 846.01C450.795 857.974 445.505 867.691 438.978 867.691H433.362C426.835 867.691 421.545 857.974 421.545 846.01C421.545 834.047 426.835 824.33 433.362 824.33Z" fill="#263238"/>
<path opacity="0.3" d="M433.362 867.691C439.888 867.691 445.179 857.984 445.179 846.01C445.179 834.037 439.888 824.33 433.362 824.33C426.836 824.33 421.545 834.037 421.545 846.01C421.545 857.984 426.836 867.691 433.362 867.691Z" fill="white"/>
<path opacity="0.3" d="M433.362 861.508C437.554 861.508 440.953 854.569 440.953 846.011C440.953 837.452 437.554 830.514 433.362 830.514C429.169 830.514 425.77 837.452 425.77 846.011C425.77 854.569 429.169 861.508 433.362 861.508Z" fill="white"/>
<path d="M431.198 843.966V826.475C431.196 824.811 431.418 823.162 431.851 821.625C432.284 820.087 432.92 818.69 433.722 817.515L440.593 807.419H453.543V837.227H442.345L435.784 846.869C435.512 847.258 435.189 847.563 434.835 847.762C434.48 847.962 434.102 848.053 433.722 848.03C433.028 847.953 432.381 847.489 431.911 846.734C431.442 845.979 431.187 844.989 431.198 843.966Z" fill="#407BFF"/>
<path opacity="0.3" d="M431.197 826.5V843.966C431.197 844.987 431.464 845.969 431.944 846.707C432.424 847.446 433.08 847.883 433.774 847.929C434.154 847.965 434.535 847.879 434.891 847.679C435.246 847.479 435.568 847.168 435.835 846.768L442.396 837.126H453.595V807.344H440.644L433.774 817.439C432.954 818.62 432.304 820.03 431.861 821.587C431.419 823.143 431.193 824.814 431.197 826.5Z" fill="white"/>
<path opacity="0.2" d="M431.197 826.5V843.966C431.197 844.987 431.464 845.969 431.944 846.707C432.424 847.446 433.079 847.883 433.774 847.929C434.154 847.965 434.535 847.879 434.891 847.679C435.246 847.479 435.568 847.168 435.835 846.768L442.396 837.126V807.344H440.678L433.808 817.439C432.982 818.616 432.325 820.024 431.877 821.581C431.428 823.137 431.197 824.81 431.197 826.5Z" fill="white"/>
<path d="M429.085 809.514H453.715C454.787 809.514 455.656 808.238 455.656 806.662V779C455.656 777.425 454.787 776.148 453.715 776.148H429.085C428.013 776.148 427.144 777.425 427.144 779V806.662C427.144 808.238 428.013 809.514 429.085 809.514Z" fill="#407BFF"/>
<path opacity="0.2" d="M427.144 778.975V806.738C427.142 807.115 427.19 807.488 427.287 807.837C427.383 808.186 427.526 808.503 427.706 808.771C427.887 809.039 428.102 809.251 428.338 809.396C428.575 809.541 428.829 809.615 429.085 809.615H453.698C454.214 809.609 454.708 809.303 455.071 808.764C455.435 808.225 455.639 807.497 455.639 806.738V778.975C455.634 778.22 455.428 777.499 455.065 776.965C454.702 776.432 454.211 776.129 453.698 776.123H429.085C428.57 776.123 428.077 776.423 427.713 776.958C427.349 777.493 427.144 778.218 427.144 778.975Z" fill="white"/>
<path opacity="0.2" d="M427.144 778.975V806.738C427.142 807.115 427.19 807.488 427.287 807.837C427.383 808.186 427.526 808.503 427.706 808.771C427.887 809.039 428.102 809.251 428.338 809.396C428.575 809.541 428.829 809.615 429.085 809.615H442.379C442.895 809.609 443.389 809.303 443.752 808.764C444.116 808.225 444.32 807.497 444.32 806.738V778.975C444.315 778.22 444.109 777.499 443.746 776.965C443.383 776.432 442.892 776.129 442.379 776.123H429.085C428.57 776.123 428.077 776.423 427.713 776.958C427.349 777.493 427.144 778.218 427.144 778.975Z" fill="white"/>
<path d="M716.367 805.728H447.497C447.219 805.728 446.953 805.566 446.757 805.277C446.56 804.989 446.45 804.597 446.45 804.189V780.514C446.45 780.106 446.56 779.714 446.757 779.426C446.953 779.137 447.219 778.975 447.497 778.975H716.367V805.728Z" fill="#407BFF"/>
<path opacity="0.3" d="M716.367 805.728H447.497C447.219 805.728 446.953 805.566 446.757 805.277C446.56 804.989 446.45 804.597 446.45 804.189V780.514C446.45 780.106 446.56 779.714 446.757 779.426C446.953 779.137 447.219 778.975 447.497 778.975H716.367V805.728Z" fill="white"/>
<path d="M728.579 837.126L721.176 848.03H716.367L714.271 830.514L728.579 837.126Z" fill="#407BFF"/>
<path d="M708.345 824.33H713.962C720.489 824.33 725.779 834.047 725.779 846.01C725.779 857.974 720.489 867.691 713.962 867.691H708.345C701.819 867.691 696.529 857.974 696.529 846.01C696.529 834.047 701.819 824.33 708.345 824.33Z" fill="#263238"/>
<path opacity="0.3" d="M708.345 867.691C714.872 867.691 720.162 857.984 720.162 846.01C720.162 834.037 714.872 824.33 708.345 824.33C701.819 824.33 696.529 834.037 696.529 846.01C696.529 857.984 701.819 867.691 708.345 867.691Z" fill="white"/>
<path opacity="0.3" d="M708.346 861.508C712.538 861.508 715.937 854.569 715.937 846.011C715.937 837.452 712.538 830.514 708.346 830.514C704.153 830.514 700.754 837.452 700.754 846.011C700.754 854.569 704.153 861.508 708.346 861.508Z" fill="white"/>
<path d="M706.181 843.966V826.475C706.182 824.809 706.406 823.159 706.843 821.622C707.279 820.084 707.918 818.688 708.723 817.515L715.594 807.419H728.561V837.227H717.346L710.785 846.869C710.513 847.258 710.19 847.563 709.836 847.762C709.481 847.962 709.103 848.053 708.723 848.03C708.026 847.959 707.374 847.498 706.902 846.742C706.429 845.986 706.171 844.993 706.181 843.966Z" fill="#407BFF"/>
<path opacity="0.3" d="M706.181 826.5V843.966C706.181 844.987 706.448 845.969 706.928 846.707C707.408 847.446 708.064 847.883 708.758 847.929C709.138 847.965 709.519 847.879 709.875 847.679C710.23 847.479 710.553 847.168 710.819 846.768L717.38 837.126H728.596V807.344H715.628L708.758 817.439C707.938 818.62 707.288 820.03 706.845 821.587C706.403 823.143 706.177 824.814 706.181 826.5Z" fill="white"/>
<path opacity="0.2" d="M706.181 826.5V843.966C706.181 844.987 706.448 845.969 706.928 846.707C707.408 847.446 708.064 847.883 708.758 847.929C709.138 847.965 709.519 847.879 709.875 847.679C710.23 847.479 710.552 847.168 710.819 846.768L717.38 837.126V807.344H715.662L708.792 817.439C707.966 818.616 707.309 820.024 706.861 821.581C706.413 823.137 706.181 824.81 706.181 826.5Z" fill="white"/>
<path d="M704.069 809.514H728.699C729.771 809.514 730.64 808.238 730.64 806.662V779C730.64 777.425 729.771 776.148 728.699 776.148H704.069C702.997 776.148 702.128 777.425 702.128 779V806.662C702.128 808.238 702.997 809.514 704.069 809.514Z" fill="#407BFF"/>
<path opacity="0.2" d="M702.128 778.975V806.738C702.126 807.115 702.174 807.488 702.271 807.837C702.367 808.186 702.51 808.503 702.69 808.771C702.871 809.039 703.086 809.251 703.322 809.396C703.559 809.541 703.813 809.615 704.069 809.615H728.682C729.198 809.609 729.692 809.303 730.055 808.764C730.419 808.225 730.623 807.497 730.623 806.738V778.975C730.618 778.22 730.412 777.499 730.049 776.965C729.686 776.432 729.195 776.129 728.682 776.123H704.069C703.554 776.123 703.06 776.423 702.696 776.958C702.332 777.493 702.128 778.218 702.128 778.975Z" fill="white"/>
<path opacity="0.2" d="M702.128 778.975V806.738C702.126 807.115 702.174 807.488 702.271 807.837C702.367 808.186 702.51 808.503 702.69 808.771C702.871 809.039 703.086 809.251 703.322 809.396C703.559 809.541 703.813 809.615 704.069 809.615H717.363C717.879 809.609 718.373 809.303 718.736 808.764C719.1 808.225 719.304 807.497 719.304 806.738V778.975C719.299 778.22 719.093 777.499 718.73 776.965C718.367 776.432 717.876 776.129 717.363 776.123H704.069C703.554 776.123 703.06 776.423 702.696 776.958C702.332 777.493 702.128 778.218 702.128 778.975Z" fill="white"/>
<path d="M215.607 671.909L603.213 671.909C605.603 671.909 607.541 669.062 607.541 665.549V635.009C607.541 631.496 605.603 628.649 603.213 628.649L215.607 628.649C213.217 628.649 211.279 631.496 211.279 635.009V665.549C211.279 669.062 213.217 671.909 215.607 671.909Z" fill="#407BFF"/>
<path opacity="0.5" d="M215.607 671.909L603.213 671.909C605.603 671.909 607.541 669.062 607.541 665.549V635.009C607.541 631.496 605.603 628.649 603.213 628.649L215.607 628.649C213.217 628.649 211.279 631.496 211.279 635.009V665.549C211.279 669.062 213.217 671.909 215.607 671.909Z" fill="white"/>
<g opacity="0.7">
<path d="M322.234 662.167H390.302C391.395 662.241 392.486 661.988 393.51 661.425C394.535 660.862 395.471 659.999 396.262 658.889C397.053 657.779 397.682 656.445 398.112 654.967C398.543 653.489 398.764 651.899 398.764 650.292C398.764 648.684 398.543 647.094 398.112 645.616C397.682 644.138 397.053 642.804 396.262 641.694C395.471 640.584 394.535 639.721 393.51 639.158C392.486 638.595 391.395 638.342 390.302 638.416H322.234C321.142 638.342 320.05 638.595 319.026 639.158C318.002 639.721 317.066 640.584 316.275 641.694C315.484 642.804 314.854 644.138 314.424 645.616C313.994 647.094 313.772 648.684 313.772 650.292C313.772 651.899 313.994 653.489 314.424 654.967C314.854 656.445 315.484 657.779 316.275 658.889C317.066 659.999 318.002 660.862 319.026 661.425C320.05 661.988 321.142 662.241 322.234 662.167Z" fill="white"/>
</g>
<g opacity="0.7">
<path d="M411.6 662.167H522.641C523.734 662.241 524.825 661.988 525.85 661.425C526.874 660.862 527.81 659.999 528.601 658.889C529.392 657.779 530.022 656.445 530.452 654.967C530.882 653.489 531.104 651.899 531.104 650.292C531.104 648.684 530.882 647.094 530.452 645.616C530.022 644.138 529.392 642.804 528.601 641.694C527.81 640.584 526.874 639.721 525.85 639.158C524.825 638.595 523.734 638.342 522.641 638.416H411.6C409.521 638.557 407.559 639.87 406.122 642.082C404.685 644.293 403.883 647.234 403.883 650.292C403.883 653.35 404.685 656.29 406.122 658.502C407.559 660.713 409.521 662.026 411.6 662.167Z" fill="white"/>
</g>
<g opacity="0.7">
<path d="M224.264 662.167H302.654C303.747 662.241 304.838 661.988 305.863 661.425C306.887 660.862 307.823 659.999 308.614 658.889C309.405 657.779 310.035 656.445 310.465 654.967C310.895 653.489 311.117 651.899 311.117 650.292C311.117 648.684 310.895 647.094 310.465 645.616C310.035 644.138 309.405 642.804 308.614 641.694C307.823 640.584 306.887 639.721 305.863 639.158C304.838 638.595 303.747 638.342 302.654 638.416H224.264C222.185 638.557 220.224 639.87 218.786 642.082C217.349 644.293 216.547 647.234 216.547 650.292C216.547 653.35 217.349 656.29 218.786 658.502C220.224 660.713 222.185 662.026 224.264 662.167Z" fill="white"/>
</g>
<path d="M534.321 510.074V694.953C534.321 702.297 537.155 708.254 540.659 708.254H744.397C747.833 708.254 750.753 702.297 750.753 694.953V510.074C750.753 502.755 747.901 496.798 744.397 496.798H540.659C537.155 496.798 534.321 502.755 534.321 510.074ZM707.641 526.101C707.641 519.337 710.252 513.86 713.481 513.86H734.092C734.925 513.923 735.736 514.281 736.454 514.906C737.172 515.53 737.776 516.401 738.214 517.444C739.365 520.011 739.963 523.028 739.932 526.101C739.932 532.865 737.321 538.317 734.092 538.317H713.481C712.648 538.255 711.837 537.896 711.119 537.272C710.401 536.647 709.797 535.776 709.359 534.733C708.205 532.178 707.606 529.168 707.641 526.101ZM545.193 526.101C545.193 519.337 547.804 513.86 551.016 513.86H571.627C572.46 513.923 573.27 514.281 573.988 514.906C574.706 515.53 575.31 516.401 575.749 517.444C576.906 520.007 577.505 523.026 577.466 526.101C577.466 532.865 574.856 538.317 571.627 538.317H551.016C550.182 538.255 549.372 537.896 548.654 537.272C547.936 536.647 547.332 535.776 546.893 534.733C545.727 532.184 545.116 529.173 545.142 526.101H545.193Z" fill="#407BFF"/>
<path opacity="0.6" d="M534.321 510.074V694.953C534.321 702.297 537.155 708.254 540.659 708.254H744.397C747.833 708.254 750.753 702.297 750.753 694.953V510.074C750.753 502.755 747.901 496.798 744.397 496.798H540.659C537.155 496.798 534.321 502.755 534.321 510.074ZM707.641 526.101C707.641 519.337 710.252 513.86 713.481 513.86H734.092C734.925 513.923 735.736 514.281 736.454 514.906C737.172 515.53 737.776 516.401 738.214 517.444C739.365 520.011 739.963 523.028 739.932 526.101C739.932 532.865 737.321 538.317 734.092 538.317H713.481C712.648 538.255 711.837 537.896 711.119 537.272C710.401 536.647 709.797 535.776 709.359 534.733C708.205 532.178 707.606 529.168 707.641 526.101ZM545.193 526.101C545.193 519.337 547.804 513.86 551.016 513.86H571.627C572.46 513.923 573.27 514.281 573.988 514.906C574.706 515.53 575.31 516.401 575.749 517.444C576.906 520.007 577.505 523.026 577.466 526.101C577.466 532.865 574.856 538.317 571.627 538.317H551.016C550.182 538.255 549.372 537.896 548.654 537.272C547.936 536.647 547.332 535.776 546.893 534.733C545.727 532.184 545.116 529.173 545.142 526.101H545.193Z" fill="white"/>
<path d="M537.722 510.074V694.953C537.722 702.297 540.556 708.254 544.06 708.254H747.798C751.234 708.254 754.153 702.297 754.153 694.953V510.074C754.153 502.755 751.302 496.798 747.798 496.798H544.06C540.556 496.798 537.722 502.755 537.722 510.074ZM711.077 526.101C711.077 519.337 713.687 513.86 716.916 513.86H737.527C738.36 513.923 739.171 514.281 739.889 514.906C740.607 515.53 741.211 516.401 741.649 517.444C742.8 520.011 743.398 523.028 743.367 526.101C743.367 532.865 740.756 538.317 737.527 538.317H716.916C716.083 538.255 715.273 537.896 714.555 537.272C713.837 536.647 713.232 535.776 712.794 534.733C711.64 532.178 711.041 529.168 711.077 526.101ZM548.628 526.101C548.628 519.337 551.239 513.86 554.451 513.86H575.062C575.895 513.923 576.705 514.281 577.423 514.906C578.142 515.53 578.746 516.401 579.184 517.444C580.341 520.007 580.941 523.026 580.902 526.101C580.902 532.865 578.291 538.317 575.062 538.317H554.451C553.618 538.255 552.807 537.896 552.089 537.272C551.371 536.647 550.767 535.776 550.329 534.733C549.15 532.189 548.527 529.178 548.542 526.101H548.628Z" fill="#407BFF"/>
<path opacity="0.7" d="M537.722 510.074V694.953C537.722 702.297 540.556 708.254 544.06 708.254H747.798C751.234 708.254 754.153 702.297 754.153 694.953V510.074C754.153 502.755 751.302 496.798 747.798 496.798H544.06C540.556 496.798 537.722 502.755 537.722 510.074ZM711.077 526.101C711.077 519.337 713.687 513.86 716.916 513.86H737.527C738.36 513.923 739.171 514.281 739.889 514.906C740.607 515.53 741.211 516.401 741.649 517.444C742.8 520.011 743.398 523.028 743.367 526.101C743.367 532.865 740.756 538.317 737.527 538.317H716.916C716.083 538.255 715.273 537.896 714.555 537.272C713.837 536.647 713.232 535.776 712.794 534.733C711.64 532.178 711.041 529.168 711.077 526.101ZM548.628 526.101C548.628 519.337 551.239 513.86 554.451 513.86H575.062C575.895 513.923 576.705 514.281 577.423 514.906C578.142 515.53 578.746 516.401 579.184 517.444C580.341 520.007 580.941 523.026 580.902 526.101C580.902 532.865 578.291 538.317 575.062 538.317H554.451C553.618 538.255 552.807 537.896 552.089 537.272C551.371 536.647 550.767 535.776 550.329 534.733C549.15 532.189 548.527 529.178 548.542 526.101H548.628Z" fill="white"/>
<path opacity="0.1" d="M553.592 664.085H738.249C741.047 664.085 743.316 660.752 743.316 656.639V588.266C743.316 584.154 741.047 580.82 738.249 580.82H553.592C550.794 580.82 548.525 584.154 548.525 588.266V656.639C548.525 660.752 550.794 664.085 553.592 664.085Z" fill="black"/>
<path d="M754.153 678.926H537.722V682.914H754.153V678.926Z" fill="#407BFF"/>
<path d="M617.915 491.599V591.219H685.467V491.599H617.915ZM641.618 496.647H661.765V516.056H641.618V496.647Z" fill="#407BFF"/>
<path d="M670.696 587.408H684.815V535.263H670.696V587.408Z" fill="#407BFF"/>
<path opacity="0.2" d="M670.696 587.408H684.815V535.263H670.696V587.408Z" fill="black"/>
<path d="M618.551 587.408H632.669V535.263H618.551V587.408Z" fill="#407BFF"/>
<path opacity="0.2" d="M618.551 587.408H632.669V535.263H618.551V587.408Z" fill="black"/>
<path d="M674.097 587.408H688.216V535.263H674.097V587.408Z" fill="#407BFF"/>
<path opacity="0.2" d="M674.097 587.408H688.216V535.263H674.097V587.408Z" fill="white"/>
<path d="M621.951 587.408H636.07V535.263H621.951V587.408Z" fill="#407BFF"/>
<path opacity="0.2" d="M621.951 587.408H636.07V535.263H621.951V587.408Z" fill="white"/>
<path d="M612.23 496.824H621.35V491.725H612.23V496.824Z" fill="#407BFF"/>
<path d="M243.312 837.126L235.909 848.03H231.1L229.004 830.514L243.312 837.126Z" fill="#407BFF"/>
<path d="M223.079 824.33H228.695C235.222 824.33 240.512 834.047 240.512 846.01C240.512 857.974 235.308 867.666 228.695 867.666H223.079C216.552 867.666 211.262 857.949 211.262 845.985C211.262 834.022 216.552 824.33 223.079 824.33Z" fill="#263238"/>
<path opacity="0.3" d="M223.079 867.691C229.605 867.691 234.896 857.984 234.896 846.01C234.896 834.037 229.605 824.33 223.079 824.33C216.553 824.33 211.262 834.037 211.262 846.01C211.262 857.984 216.553 867.691 223.079 867.691Z" fill="white"/>
<path opacity="0.3" d="M223.079 861.508C227.272 861.508 230.671 854.569 230.671 846.011C230.671 837.452 227.272 830.514 223.079 830.514C218.886 830.514 215.487 837.452 215.487 846.011C215.487 854.569 218.886 861.508 223.079 861.508Z" fill="white"/>
<path d="M220.915 843.966V826.475C220.915 824.809 221.14 823.159 221.576 821.622C222.012 820.084 222.652 818.688 223.457 817.515L230.327 807.419H243.278V837.227H232.079L225.518 846.869C225.246 847.258 224.924 847.563 224.569 847.762C224.215 847.962 223.836 848.053 223.457 848.03C222.76 847.959 222.108 847.498 221.635 846.742C221.162 845.986 220.904 844.993 220.915 843.966Z" fill="#407BFF"/>
<path opacity="0.7" d="M220.915 826.5V843.966C220.914 844.987 221.182 845.969 221.662 846.707C222.142 847.446 222.797 847.883 223.491 847.929C223.871 847.965 224.252 847.879 224.608 847.679C224.964 847.479 225.286 847.168 225.552 846.768L232.113 837.126H243.329V807.344H230.362L223.491 817.439C222.672 818.62 222.021 820.03 221.579 821.587C221.136 823.143 220.91 824.814 220.915 826.5Z" fill="white"/>
<path opacity="0.2" d="M220.915 826.5V843.966C220.914 844.987 221.182 845.969 221.662 846.707C222.142 847.446 222.797 847.883 223.491 847.929C223.871 847.965 224.252 847.879 224.608 847.679C224.964 847.479 225.286 847.168 225.552 846.768L232.113 837.126V807.344H230.396L223.526 817.439C222.7 818.616 222.043 820.024 221.594 821.581C221.146 823.137 220.915 824.81 220.915 826.5Z" fill="white"/>
<path d="M218.802 809.514H243.432C244.504 809.514 245.373 808.238 245.373 806.662V779C245.373 777.425 244.504 776.148 243.432 776.148H218.802C217.73 776.148 216.861 777.425 216.861 779V806.662C216.861 808.238 217.73 809.514 218.802 809.514Z" fill="#407BFF"/>
<path opacity="0.5" d="M243.415 776.123H218.802C217.73 776.123 216.861 777.399 216.861 778.975V806.637C216.861 808.212 217.73 809.489 218.802 809.489H243.415C244.487 809.489 245.356 808.212 245.356 806.637V778.975C245.356 777.399 244.487 776.123 243.415 776.123Z" fill="white"/>
<path opacity="0.2" d="M216.861 778.975V806.738C216.859 807.115 216.907 807.488 217.004 807.837C217.1 808.186 217.243 808.503 217.424 808.771C217.604 809.039 217.819 809.251 218.055 809.396C218.292 809.541 218.546 809.615 218.802 809.615H232.096C232.612 809.609 233.106 809.303 233.469 808.764C233.833 808.225 234.037 807.497 234.037 806.738V778.975C234.032 778.22 233.827 777.499 233.463 776.965C233.1 776.432 232.609 776.129 232.096 776.123H218.802C218.287 776.123 217.794 776.423 217.43 776.958C217.066 777.493 216.861 778.218 216.861 778.975Z" fill="white"/>
<path d="M506.084 805.728H237.283C237.146 805.728 237.009 805.689 236.882 805.611C236.755 805.534 236.64 805.42 236.542 805.277C236.445 805.134 236.368 804.965 236.315 804.778C236.263 804.591 236.235 804.391 236.235 804.189V780.514C236.235 780.312 236.263 780.112 236.315 779.925C236.368 779.738 236.445 779.569 236.542 779.426C236.64 779.283 236.755 779.169 236.882 779.092C237.009 779.014 237.146 778.975 237.283 778.975H506.084V805.728Z" fill="#407BFF"/>
<path opacity="0.7" d="M506.084 805.728H237.283C237.146 805.728 237.009 805.689 236.882 805.611C236.755 805.534 236.64 805.42 236.542 805.277C236.445 805.134 236.368 804.965 236.315 804.778C236.263 804.591 236.235 804.391 236.235 804.189V780.514C236.235 780.312 236.263 780.112 236.315 779.925C236.368 779.738 236.445 779.569 236.542 779.426C236.64 779.283 236.755 779.169 236.882 779.092C237.009 779.014 237.146 778.975 237.283 778.975H506.084V805.728Z" fill="white"/>
<path d="M518.313 837.126L510.893 848.03H506.084L503.989 830.514L518.313 837.126Z" fill="#407BFF"/>
<path d="M498.097 824.33H503.713C510.24 824.33 515.53 834.047 515.53 846.01C515.53 857.974 510.24 867.691 503.713 867.691H498.097C491.57 867.691 486.28 857.974 486.28 846.01C486.28 834.047 491.536 824.33 498.097 824.33Z" fill="#263238"/>
<path opacity="0.3" d="M498.063 867.691C504.589 867.691 509.879 857.984 509.879 846.01C509.879 834.037 504.589 824.33 498.063 824.33C491.536 824.33 486.246 834.037 486.246 846.01C486.246 857.984 491.536 867.691 498.063 867.691Z" fill="white"/>
<path opacity="0.3" d="M498.063 861.508C502.256 861.508 505.655 854.569 505.655 846.011C505.655 837.452 502.256 830.514 498.063 830.514C493.87 830.514 490.471 837.452 490.471 846.011C490.471 854.569 493.87 861.508 498.063 861.508Z" fill="white"/>
<path d="M495.899 843.966V826.475C495.899 824.809 496.124 823.159 496.56 821.622C496.996 820.084 497.636 818.688 498.441 817.515L505.311 807.419H518.279V837.227H507.063L500.502 846.869C500.232 847.261 499.909 847.567 499.554 847.767C499.199 847.966 498.82 848.056 498.441 848.03C497.744 847.959 497.092 847.498 496.619 846.742C496.146 845.986 495.888 844.993 495.899 843.966Z" fill="#407BFF"/>
<path opacity="0.7" d="M495.899 826.5V843.966C495.898 844.987 496.165 845.969 496.645 846.707C497.125 847.446 497.781 847.883 498.475 847.929C498.855 847.965 499.236 847.879 499.592 847.679C499.947 847.479 500.27 847.168 500.536 846.768L507.097 837.126H518.313V807.344H505.345L498.475 817.439C497.655 818.62 497.005 820.03 496.562 821.587C496.12 823.143 495.894 824.814 495.899 826.5Z" fill="white"/>
<path opacity="0.2" d="M495.899 826.5V843.966C495.898 844.987 496.166 845.969 496.646 846.707C497.126 847.446 497.781 847.883 498.475 847.929C498.855 847.965 499.236 847.879 499.592 847.679C499.948 847.479 500.27 847.168 500.536 846.768L507.097 837.126V807.344H505.38L498.509 817.439C497.683 818.616 497.027 820.024 496.578 821.581C496.13 823.137 495.899 824.81 495.899 826.5Z" fill="white"/>
<path d="M493.786 809.514H518.416C519.488 809.514 520.357 808.238 520.357 806.662V779C520.357 777.425 519.488 776.148 518.416 776.148H493.786C492.714 776.148 491.845 777.425 491.845 779V806.662C491.845 808.238 492.714 809.514 493.786 809.514Z" fill="#407BFF"/>
<path opacity="0.5" d="M491.845 778.975V806.738C491.843 807.115 491.892 807.488 491.988 807.837C492.085 808.186 492.227 808.503 492.408 808.771C492.588 809.039 492.803 809.251 493.039 809.396C493.276 809.541 493.53 809.615 493.786 809.615H518.399C518.915 809.609 519.409 809.303 519.773 808.764C520.136 808.225 520.34 807.497 520.34 806.738V778.975C520.335 778.22 520.129 777.499 519.766 776.965C519.403 776.432 518.912 776.129 518.399 776.123H493.786C493.271 776.123 492.778 776.423 492.414 776.958C492.05 777.493 491.845 778.218 491.845 778.975Z" fill="white"/>
<path opacity="0.2" d="M491.845 778.975V806.738C491.843 807.115 491.892 807.488 491.988 807.837C492.085 808.186 492.227 808.503 492.408 808.771C492.588 809.039 492.803 809.251 493.039 809.396C493.276 809.541 493.53 809.615 493.786 809.615H507.08C507.337 809.615 507.59 809.541 507.827 809.396C508.064 809.251 508.278 809.039 508.459 808.771C508.639 808.503 508.782 808.186 508.878 807.837C508.975 807.488 509.023 807.115 509.021 806.738V778.975C509.021 778.218 508.817 777.493 508.453 776.958C508.089 776.423 507.595 776.123 507.08 776.123H493.786C493.271 776.123 492.778 776.423 492.414 776.958C492.05 777.493 491.845 778.218 491.845 778.975Z" fill="white"/>
<path opacity="0.1" d="M388.756 475.673H208.84C204.714 475.673 201.369 480.589 201.369 486.652V557.398C201.369 563.462 204.714 568.377 208.84 568.377H388.756C392.883 568.377 396.228 563.462 396.228 557.398V486.652C396.228 480.589 392.883 475.673 388.756 475.673Z" fill="black"/>
<path d="M293.843 859.564C293.84 857.956 294.161 856.382 294.767 855.042C295.372 853.702 296.235 852.657 297.245 852.038C298.256 851.419 299.368 851.254 300.442 851.565C301.516 851.876 302.503 852.648 303.278 853.783C304.053 854.919 304.582 856.367 304.797 857.944C305.011 859.521 304.903 861.156 304.485 862.643C304.067 864.129 303.358 865.4 302.448 866.294C301.538 867.189 300.468 867.666 299.374 867.666C297.91 867.666 296.506 866.813 295.469 865.294C294.432 863.776 293.848 861.715 293.843 859.564Z" fill="#263238"/>
<path d="M217.016 859.564C217.016 857.956 217.341 856.383 217.949 855.046C218.558 853.709 219.422 852.667 220.434 852.053C221.446 851.439 222.558 851.279 223.632 851.595C224.705 851.911 225.69 852.687 226.463 853.826C227.236 854.965 227.761 856.416 227.973 857.994C228.184 859.572 228.072 861.207 227.651 862.692C227.23 864.176 226.518 865.444 225.607 866.334C224.695 867.224 223.624 867.696 222.529 867.691C221.065 867.684 219.663 866.825 218.63 865.302C217.596 863.778 217.016 861.715 217.016 859.564Z" fill="#263238"/>
<path d="M299.373 864.612C298.462 864.612 297.589 864.08 296.944 863.134C296.3 862.187 295.938 860.903 295.938 859.564V851.21C295.934 850.308 295.688 849.445 295.254 848.808C294.82 848.17 294.233 847.809 293.62 847.803H228.352C227.735 847.803 227.144 848.161 226.706 848.799C226.268 849.437 226.02 850.304 226.016 851.21V859.564C226.016 860.903 225.654 862.187 225.01 863.134C224.365 864.08 223.492 864.612 222.581 864.612C221.67 864.612 220.796 864.08 220.152 863.134C219.507 862.187 219.146 860.903 219.146 859.564V851.21C219.15 847.626 220.122 844.192 221.848 841.66C223.574 839.129 225.913 837.707 228.352 837.707H293.62C296.055 837.714 298.39 839.138 300.112 841.669C301.835 844.2 302.804 847.631 302.809 851.21V859.564C302.809 860.903 302.447 862.187 301.802 863.134C301.158 864.08 300.285 864.612 299.373 864.612Z" fill="#263238"/>
<path d="M260.952 847.802C260.04 847.802 259.167 847.271 258.523 846.324C257.878 845.377 257.516 844.093 257.516 842.755V217.398C257.516 216.059 257.878 214.775 258.523 213.829C259.167 212.882 260.04 212.35 260.952 212.35C261.863 212.35 262.736 212.882 263.381 213.829C264.025 214.775 264.387 216.059 264.387 217.398V842.755C264.387 844.093 264.025 845.377 263.381 846.324C262.736 847.271 261.863 847.802 260.952 847.802Z" fill="#263238"/>
<path d="M299.734 237.691C299.279 237.691 298.842 237.425 298.52 236.952C298.198 236.478 298.017 235.836 298.017 235.167C298.017 234.497 298.198 233.855 298.52 233.382C298.842 232.909 299.279 232.643 299.734 232.643C301.197 232.643 302.599 231.789 303.633 230.27C304.667 228.751 305.248 226.69 305.248 224.541V223.733C305.248 221.585 304.667 219.524 303.633 218.005C302.599 216.485 301.197 215.632 299.734 215.632H222.186C220.724 215.632 219.321 216.485 218.287 218.005C217.253 219.524 216.672 221.585 216.672 223.733V224.541C216.672 226.69 217.253 228.751 218.287 230.27C219.321 231.789 220.724 232.643 222.186 232.643C223.648 232.643 225.05 231.789 226.084 230.27C227.118 228.751 227.699 226.69 227.699 224.541V223.027C227.699 222.357 227.88 221.715 228.202 221.242C228.524 220.769 228.961 220.503 229.417 220.503C229.872 220.503 230.309 220.769 230.631 221.242C230.953 221.715 231.134 222.357 231.134 223.027V224.541C231.134 228.029 230.192 231.373 228.513 233.839C226.835 236.305 224.559 237.691 222.186 237.691C219.813 237.691 217.536 236.305 215.858 233.839C214.18 231.373 213.237 228.029 213.237 224.541V223.733C213.237 220.246 214.18 216.901 215.858 214.435C217.536 211.969 219.813 210.584 222.186 210.584H299.734C300.91 210.584 302.073 210.924 303.159 211.585C304.245 212.245 305.231 213.214 306.062 214.435C306.893 215.656 307.552 217.106 308.002 218.701C308.452 220.297 308.683 222.007 308.683 223.733V224.541C308.683 226.268 308.452 227.978 308.002 229.573C307.552 231.169 306.893 232.618 306.062 233.839C305.231 235.06 304.245 236.029 303.159 236.69C302.073 237.351 300.91 237.691 299.734 237.691Z" fill="#263238"/>
<path d="M288.106 246.55C288.106 245.211 288.468 243.927 289.112 242.98C289.757 242.034 290.63 241.502 291.541 241.502C292.452 241.502 293.326 240.97 293.97 240.023C294.615 239.077 294.977 237.793 294.977 236.454V235.52C294.945 233.465 295.449 231.47 296.384 229.941C297.319 228.412 298.615 227.465 300.009 227.292C300.73 227.234 301.452 227.392 302.13 227.758C302.808 228.124 303.428 228.689 303.952 229.419C304.476 230.149 304.893 231.029 305.178 232.004C305.463 232.979 305.609 234.03 305.608 235.091V236.656C305.657 237.946 306.04 239.16 306.679 240.047C307.318 240.935 308.164 241.428 309.043 241.426C309.933 241.472 310.777 242.024 311.395 242.966C312.014 243.907 312.359 245.165 312.358 246.474V301.698C312.358 303.278 311.931 304.793 311.171 305.91C310.411 307.027 309.38 307.654 308.305 307.654H306.587C305.511 307.654 304.478 308.281 303.715 309.397C302.952 310.514 302.521 312.029 302.517 313.611V317.851H298.102V313.611C298.098 312.029 297.667 310.514 296.904 309.397C296.141 308.281 295.108 307.654 294.032 307.654H292.314C291.782 307.654 291.255 307.5 290.763 307.201C290.271 306.902 289.824 306.463 289.448 305.91C289.072 305.357 288.773 304.7 288.569 303.977C288.366 303.255 288.261 302.48 288.261 301.698L288.106 246.55Z" fill="#407BFF"/>
<path opacity="0.7" d="M288.106 246.55C288.106 245.211 288.468 243.927 289.112 242.98C289.757 242.034 290.63 241.502 291.541 241.502C292.452 241.502 293.326 240.97 293.97 240.023C294.615 239.077 294.977 237.793 294.977 236.454V235.52C294.945 233.465 295.449 231.47 296.384 229.941C297.319 228.412 298.615 227.465 300.009 227.292C300.73 227.234 301.452 227.392 302.13 227.758C302.808 228.124 303.428 228.689 303.952 229.419C304.476 230.149 304.893 231.029 305.178 232.004C305.463 232.979 305.609 234.03 305.608 235.091V236.656C305.657 237.946 306.04 239.16 306.679 240.047C307.318 240.935 308.164 241.428 309.043 241.426C309.933 241.472 310.777 242.024 311.395 242.966C312.014 243.907 312.359 245.165 312.358 246.474V301.698C312.358 303.278 311.931 304.793 311.171 305.91C310.411 307.027 309.38 307.654 308.305 307.654H306.587C305.511 307.654 304.478 308.281 303.715 309.397C302.952 310.514 302.521 312.029 302.517 313.611V317.851H298.102V313.611C298.098 312.029 297.667 310.514 296.904 309.397C296.141 308.281 295.108 307.654 294.032 307.654H292.314C291.782 307.654 291.255 307.5 290.763 307.201C290.271 306.902 289.824 306.463 289.448 305.91C289.072 305.357 288.773 304.7 288.569 303.977C288.366 303.255 288.261 302.48 288.261 301.698L288.106 246.55Z" fill="white"/>
<path opacity="0.1" d="M292.005 303.843H308.339C309.373 303.843 310.211 302.612 310.211 301.092V247.029C310.211 245.51 309.373 244.278 308.339 244.278H292.005C290.971 244.278 290.133 245.51 290.133 247.029V301.092C290.133 302.612 290.971 303.843 292.005 303.843Z" fill="black"/>
<path d="M310.212 278.932V300.865C310.212 301.655 309.998 302.412 309.618 302.971C309.238 303.529 308.722 303.843 308.185 303.843H292.16C291.622 303.843 291.107 303.529 290.727 302.971C290.347 302.412 290.133 301.655 290.133 300.865V278.932H310.212Z" fill="#407BFF"/>
<path d="M299.734 237.691C297.363 237.684 295.089 236.297 293.412 233.832C291.735 231.367 290.79 228.027 290.786 224.541V223.027C290.786 222.357 290.967 221.715 291.289 221.242C291.611 220.769 292.048 220.503 292.503 220.503C292.959 220.503 293.396 220.769 293.718 221.242C294.04 221.715 294.221 222.357 294.221 223.027V224.541C294.221 226.69 294.802 228.751 295.836 230.27C296.87 231.789 298.272 232.643 299.734 232.643C300.19 232.643 300.627 232.909 300.949 233.382C301.271 233.855 301.452 234.497 301.452 235.167C301.452 235.836 301.271 236.478 300.949 236.952C300.627 237.425 300.19 237.691 299.734 237.691Z" fill="#263238"/>
<path d="M291.129 493.416C288.507 493.41 285.993 491.876 284.139 489.151C282.284 486.426 281.241 482.732 281.236 478.878V442.382C281.236 442.231 281.477 436.83 279.089 435.542L279.673 433.17C283.297 435.113 282.971 442.18 282.954 442.483V478.979C282.954 482.166 283.815 485.221 285.348 487.474C286.881 489.728 288.961 490.993 291.129 490.993C293.298 490.993 295.377 489.728 296.91 487.474C298.444 485.221 299.305 482.166 299.305 478.979V311.895H301.023V478.979C301 482.815 299.948 486.484 298.096 489.187C296.243 491.89 293.74 493.41 291.129 493.416Z" fill="#407BFF"/>
<path d="M271.12 805.703V743.841H415.808V867.691H372.834H271.12H228.146V805.703H271.12Z" fill="#263238"/>
<path opacity="0.2" d="M228.146 805.703V867.691H415.808V743.841H271.12V805.703H228.146Z" fill="white"/>
<path opacity="0.2" d="M228.146 805.703V867.691H331.269V805.703H374.226V743.841H271.12V805.703H228.146Z" fill="white"/>
<path opacity="0.2" d="M331.269 805.703H228.146V867.666H331.269V805.703Z" fill="white"/>
<path d="M386.97 328.982C386.97 328.982 382.367 312.021 365.878 316.008C349.389 319.996 343.549 343.772 346.006 354.019C348.462 364.266 345.559 377.088 343.069 379.662C340.578 382.237 342.605 388.572 344.185 392.888C345.765 397.204 345.903 399.829 341.901 409.369C340.172 413.262 339.431 417.924 339.808 422.539C340.185 427.154 341.656 431.427 343.962 434.608C347.809 439.252 387.021 447.051 394.476 437.915C406.018 423.781 396.073 413.786 396.073 409.47C396.073 404.422 398.598 401.898 399.147 392.661C399.697 383.423 393.995 377.34 393.342 372.469C392.689 367.598 395.06 362.853 395.06 356.77C395.06 350.687 392.191 349.93 391.624 341.147C391.545 338.727 391.083 336.368 390.275 334.257C389.467 332.145 388.335 330.339 386.97 328.982Z" fill="#263238"/>
<path d="M265.743 834.123C272.566 831.03 279.125 826.796 285.289 821.503C289.137 818.474 289.171 819.964 293.139 817.137C293.712 816.651 294.199 815.974 294.56 815.16C294.922 814.346 295.148 813.419 295.22 812.452C295.292 811.486 295.208 810.509 294.974 809.599C294.741 808.69 294.365 807.874 293.877 807.218C292.014 805.029 290.289 802.596 288.725 799.949L277.492 802.725C277.028 809.489 269.556 824.002 263.064 827.409C258.375 829.807 262.274 835.536 265.743 834.123Z" fill="#EBB376"/>
<path d="M339.032 521.886C339.032 521.886 296.093 597.15 282.129 633.823C276.684 648.083 277.131 806.006 277.131 806.006L293.139 799.797L309.164 652.424L374.019 559.039L385.699 523.931L339.032 521.886Z" fill="#407BFF"/>
<g opacity="0.2">
<path d="M277.131 805.93L293.139 799.721L308.442 659.315L309.198 652.424L335.357 614.767L374.054 559.089L385.716 523.981L339.032 521.886C339.032 521.886 296.093 597.125 282.129 633.798C276.684 648.083 277.131 805.93 277.131 805.93Z" fill="black"/>
</g>
<path opacity="0.2" d="M308.443 659.315L309.198 652.425L335.357 614.767L349.372 552.704C349.372 552.704 315.021 579.962 304.561 605.908C299.099 619.512 303.256 641.471 308.443 659.315Z" fill="black"/>
<path d="M313.492 806.915C320.452 804.613 327.208 801.132 333.622 796.541C337.624 794.017 337.572 795.456 341.677 793.058C342.274 792.637 342.795 792.014 343.197 791.241C343.599 790.469 343.871 789.567 343.992 788.611C344.112 787.654 344.078 786.669 343.89 785.736C343.703 784.803 343.369 783.948 342.914 783.24C341.155 780.857 339.546 778.247 338.105 775.441L326.752 776.93C325.944 783.644 317.734 797.273 311.105 799.949C306.347 801.892 309.954 807.975 313.492 806.915Z" fill="#EBB376"/>
<path d="M385.733 523.956C385.733 523.956 324.382 564.995 312.187 601.769C303.599 627.513 325.635 777.359 325.635 777.359L340.922 775.769C340.647 723.776 343.395 631.324 343.395 631.324C343.395 631.324 386.936 601.466 391.023 587.887C398.718 562.269 385.733 523.956 385.733 523.956Z" fill="#407BFF"/>
<g opacity="0.2">
<path d="M385.733 523.956C385.733 523.956 324.382 564.995 312.187 601.769C303.599 627.513 325.635 777.359 325.635 777.359L340.922 775.769C340.647 723.776 343.395 631.324 343.395 631.324C343.395 631.324 386.936 601.466 391.023 587.887C398.718 562.269 385.733 523.956 385.733 523.956Z" fill="black"/>
</g>
<path d="M346.71 441.524C341.243 447.937 335.506 453.838 329.534 459.192C322.99 464.972 314.265 472.24 306.278 469.767C291.954 465.577 279.742 453.134 268.492 440.313C267.781 439.46 267.308 438.253 267.163 436.922C267.018 435.591 267.211 434.227 267.704 433.091C268.198 431.954 268.959 431.124 269.841 430.757C270.724 430.39 271.668 430.512 272.494 431.1C281.209 437.663 290.239 443.281 299.511 447.91C303.324 449.525 307.36 451.267 310.744 450.232C320.311 443.796 329.002 433.044 337.641 424.109C339.23 422.471 341.189 421.799 343.107 422.233C345.026 422.667 346.756 424.175 347.935 426.44C349.115 428.705 349.654 431.552 349.438 434.387C349.223 437.221 348.27 439.824 346.779 441.65L346.71 441.524Z" fill="#E9B376"/>
<path d="M349.372 411.742C338.689 413.483 324.313 435.239 324.313 435.239C324.313 435.239 330.101 464.845 335.683 466.612C341.265 468.379 349.372 411.742 349.372 411.742Z" fill="#407BFF"/>
<path opacity="0.1" d="M338.93 462.397C337.813 465.3 336.697 466.915 335.683 466.612C333.502 465.905 331.286 460.959 329.397 455.204C331.591 450.285 334.338 445.949 337.521 442.382C339.342 447.279 339.72 455.482 338.93 462.397Z" fill="black"/>
<path d="M334.223 441.625C333.868 451.526 333.972 461.451 334.533 471.332C335.099 485.819 334.893 502.402 336.628 526.101H388.155C386.884 505.582 387.365 478.399 395.661 431.958C396.156 429.53 396.275 426.97 396.009 424.465C395.743 421.961 395.098 419.575 394.123 417.484C393.148 415.393 391.867 413.649 390.374 412.38C388.88 411.112 387.213 410.35 385.493 410.151C383.518 409.924 381.44 409.722 379.293 409.647C371.786 409.048 364.26 409.259 356.775 410.278C354.336 410.656 351.794 411.186 349.39 411.742C340.63 413.786 334.326 428.778 334.223 441.625Z" fill="#407BFF"/>
<path d="M257.053 430.621L258.375 435.669C258.622 436.608 259.017 437.448 259.527 438.119C260.038 438.79 260.65 439.274 261.312 439.53L267.599 442.054C268.84 442.531 270.141 442.565 271.393 442.152C272.645 441.74 273.812 440.892 274.795 439.682L276.015 438.167C274.297 429.51 267.959 422.115 267.959 422.115L266.345 419.591C266.018 419.073 265.624 418.656 265.186 418.365C264.748 418.075 264.274 417.917 263.794 417.9C263.313 417.884 262.835 418.009 262.388 418.27C261.941 418.53 261.535 418.919 261.192 419.414L257.911 424.084C257.351 424.933 256.972 426.003 256.819 427.164C256.667 428.325 256.748 429.526 257.053 430.621Z" fill="#EBB376"/>
<path d="M377.214 372.419C375.394 383.12 373.247 402.706 378.039 409.672C378.039 409.672 373.178 418.859 355.899 433.094C349.372 420.474 355.521 410.379 355.521 410.379C363.714 407.299 363.834 398.491 362.735 390.187L377.214 372.419Z" fill="#EBB376"/>
<path opacity="0.2" d="M371.305 379.662L362.718 390.162C363.003 392.087 363.164 394.048 363.198 396.018C366.307 395.286 370.739 390.187 371.237 385.417C371.501 383.521 371.524 381.57 371.305 379.662Z" fill="black"/>
<path d="M383.122 350.864C381.147 368.128 380.563 375.473 373.985 383.903C364.109 396.522 350.231 390.414 348.685 372.923C347.294 357.174 350.763 331.607 362.735 325.6C365.278 324.179 368.033 323.783 370.715 324.454C373.397 325.125 375.908 326.838 377.988 329.415C380.068 331.993 381.641 335.34 382.544 339.112C383.446 342.883 383.646 346.941 383.122 350.864Z" fill="#EBB376"/>
<path d="M368.214 354.171C368.094 355.609 367.493 356.694 366.857 356.694C366.222 356.694 365.792 355.432 365.93 353.969C366.067 352.505 366.668 351.445 367.304 351.445C367.939 351.445 368.352 352.782 368.214 354.171Z" fill="#263238"/>
<path d="M355.882 352.606C355.762 354.07 355.143 355.13 354.508 355.13C353.872 355.13 353.46 353.868 353.58 352.404C353.701 350.94 354.319 349.88 354.954 349.88C355.59 349.88 356.002 351.142 355.882 352.606Z" fill="#263238"/>
<path d="M355.229 349.981L352.979 348.769C352.979 348.769 353.958 351.621 355.229 349.981Z" fill="#263238"/>
<path d="M359.128 354.019C357.979 357.274 356.553 360.302 354.886 363.03C355.352 363.618 355.905 364.039 356.502 364.258C357.098 364.477 357.721 364.488 358.321 364.291L359.128 354.019Z" fill="#D58745"/>
<path d="M370.825 345.211C370.748 345.215 370.671 345.195 370.6 345.151C370.529 345.107 370.465 345.042 370.413 344.958C369.939 344.186 369.344 343.598 368.679 343.246C368.013 342.894 367.299 342.788 366.6 342.939C366.527 342.961 366.453 342.961 366.38 342.94C366.308 342.918 366.239 342.876 366.179 342.815C366.118 342.753 366.066 342.675 366.026 342.583C365.986 342.492 365.959 342.39 365.947 342.283C365.926 342.057 365.964 341.827 366.053 341.64C366.142 341.453 366.276 341.322 366.428 341.273C367.315 341.052 368.225 341.168 369.073 341.609C369.921 342.051 370.678 342.804 371.271 343.797C371.377 343.961 371.435 344.178 371.435 344.403C371.435 344.628 371.377 344.845 371.271 345.009C371.145 345.157 370.986 345.229 370.825 345.211Z" fill="#263238"/>
<path d="M351.622 342.687C351.477 342.709 351.331 342.656 351.21 342.535C351.106 342.376 351.048 342.163 351.048 341.942C351.048 341.721 351.106 341.509 351.21 341.349C351.743 340.21 352.448 339.269 353.271 338.599C354.094 337.929 355.011 337.548 355.95 337.487C356.024 337.486 356.097 337.509 356.165 337.553C356.232 337.597 356.292 337.662 356.341 337.744C356.39 337.825 356.427 337.921 356.448 338.025C356.469 338.128 356.475 338.238 356.466 338.345C356.449 338.573 356.378 338.785 356.265 338.943C356.151 339.1 356.003 339.193 355.847 339.204C355.105 339.263 354.382 339.574 353.735 340.112C353.089 340.651 352.536 341.403 352.12 342.308C352.059 342.418 351.983 342.508 351.898 342.573C351.812 342.638 351.718 342.677 351.622 342.687Z" fill="#263238"/>
<path d="M367.561 351.52L365.329 350.258C365.329 350.258 366.29 353.161 367.561 351.52Z" fill="#263238"/>
<path d="M379.842 363.787C379.842 363.787 374.913 345.438 375.737 329.915C375.737 329.915 361.687 322.596 354.216 335.418C354.216 335.418 356.174 323.303 368.643 321.334C381.113 319.365 395.335 342.081 379.842 363.787Z" fill="#263238"/>
<path d="M385.974 365.402C384.561 368.484 382.375 370.617 379.894 371.333C376.699 372.141 375.617 367.446 376.922 362.954C378.09 358.916 381.165 353.641 384.17 354.877C387.176 356.114 387.777 361.54 385.974 365.402Z" fill="#EBB376"/>
<path d="M357.462 372.974C357.385 372.974 357.309 372.944 357.242 372.886C357.176 372.828 357.121 372.745 357.084 372.646C357.054 372.574 357.035 372.494 357.028 372.41C357.02 372.327 357.025 372.242 357.041 372.161C357.057 372.08 357.085 372.005 357.122 371.941C357.159 371.877 357.204 371.825 357.256 371.788C359.16 370.482 361.22 369.736 363.319 369.592C363.429 369.598 363.533 369.662 363.612 369.774C363.691 369.886 363.74 370.037 363.748 370.198C363.751 370.28 363.742 370.363 363.722 370.441C363.703 370.519 363.673 370.59 363.635 370.651C363.596 370.712 363.55 370.761 363.499 370.796C363.448 370.831 363.392 370.851 363.336 370.854C361.371 371.008 359.442 371.701 357.651 372.898L357.462 372.974Z" fill="#263238"/>
<path opacity="0.1" d="M395.043 435.138C392.793 447.96 391.075 458.964 389.89 468.631C382.436 454.32 385.836 432.715 385.836 432.715C388.859 429.939 392.123 431.403 395.043 435.138Z" fill="black"/>
<path d="M398.117 427.188C401.638 454.245 403.665 482.361 408.199 508.863C412.613 529.509 418.161 549.826 422.953 570.321C423.244 571.6 423.204 572.991 422.843 574.23C422.482 575.47 421.823 576.471 420.992 577.044C420.162 577.617 419.217 577.721 418.337 577.338C417.457 576.955 416.704 576.11 416.22 574.965C407.495 552.704 398.598 530.14 393.411 505.43C389.185 480.793 385.809 455.859 383.294 430.722C382.109 416.411 396.159 413.054 398.117 427.188Z" fill="#E9B376"/>
<path d="M389.22 411.767C399.079 417.824 404.42 443.392 404.42 443.392C404.42 443.392 396.485 465.072 385.647 472.77C385.647 472.77 376.321 438.117 379.584 424.134C382.848 410.152 389.22 411.767 389.22 411.767Z" fill="#407BFF"/>
<path d="M418.9 566.838L432.64 568.402L429.823 585.565C429.823 585.565 420.119 586.474 416.753 575.798L418.9 566.838Z" fill="#EBB376"/>
<path d="M440.902 576.101L436.711 588.165L429.806 585.591L432.623 568.402L440.902 576.101Z" fill="#EBB376"/>
<path d="M365.054 324.211C365.054 324.211 365.724 337.639 371.46 338.648C377.197 339.658 377.231 351.268 377.231 351.268L384.995 334.459L378.88 323L365.054 324.211Z" fill="#263238"/>
<path d="M337.452 403.387C337.338 403.387 337.229 403.321 337.148 403.203C337.068 403.084 337.023 402.924 337.023 402.756C337.023 402.589 337.068 402.429 337.148 402.31C337.229 402.192 337.338 402.125 337.452 402.125C338.24 401.86 338.961 401.271 339.53 400.426C340.099 399.581 340.492 398.516 340.664 397.355C340.897 395.175 340.605 392.944 339.84 391.045C338.684 388.031 338.37 384.474 338.964 381.126C339.551 378.984 340.319 376.957 341.248 375.094C343.24 370.652 345.508 365.604 344.391 357.426C342.536 343.949 346.109 332.54 355.04 323.555C355.138 323.472 355.253 323.444 355.363 323.477C355.474 323.509 355.573 323.6 355.641 323.732C355.673 323.801 355.696 323.879 355.707 323.961C355.718 324.044 355.719 324.128 355.707 324.211C355.696 324.293 355.674 324.371 355.642 324.44C355.61 324.51 355.569 324.569 355.521 324.615C346.796 333.399 343.498 344.05 345.216 357.174C346.401 365.755 344.03 371.005 341.935 375.649C341.059 377.433 340.332 379.365 339.771 381.404C339.233 384.453 339.536 387.691 340.612 390.414C341.468 392.588 341.772 395.136 341.471 397.608C341.246 399 340.757 400.27 340.061 401.27C339.365 402.271 338.49 402.961 337.538 403.261L337.452 403.387Z" fill="#263238"/>
<path d="M378.674 355.836C378.329 355.847 377.987 355.735 377.678 355.508C376.476 354.701 375.96 352.505 375.428 349.956C374.603 346.22 373.71 341.98 370.275 340.617C362.838 337.614 364.573 324.211 364.59 324.085C364.615 323.926 364.68 323.787 364.773 323.698C364.866 323.609 364.979 323.575 365.088 323.606C365.144 323.618 365.198 323.646 365.246 323.69C365.295 323.734 365.336 323.793 365.369 323.861C365.401 323.93 365.423 324.008 365.434 324.09C365.445 324.172 365.444 324.256 365.431 324.338C365.431 324.842 363.834 336.705 370.498 339.481C374.294 341.021 375.359 345.791 376.218 349.577C376.716 351.823 377.145 353.792 377.935 354.373C378.244 354.529 378.571 354.59 378.896 354.551C379.222 354.512 379.538 354.374 379.825 354.145C379.876 354.108 379.932 354.087 379.99 354.084C380.047 354.081 380.104 354.095 380.157 354.126C380.211 354.156 380.259 354.203 380.299 354.263C380.34 354.323 380.371 354.395 380.392 354.473C380.414 354.551 380.425 354.635 380.425 354.719C380.425 354.803 380.413 354.887 380.391 354.965C380.369 355.042 380.336 355.112 380.295 355.171C380.253 355.23 380.205 355.276 380.151 355.306C379.685 355.613 379.184 355.792 378.674 355.836Z" fill="#263238"/>
<path d="M399.577 414.165C399.512 414.168 399.447 414.149 399.387 414.109C399.328 414.07 399.275 414.011 399.233 413.937C396.846 409.621 398.134 404.725 399.371 400.005C400.106 397.707 400.565 395.239 400.728 392.711C400.551 388.205 399.561 383.849 397.859 380.091C396.262 375.826 394.751 371.788 395.661 366.992C397.172 359.017 394.665 353.035 392.638 348.214C391.38 345.848 390.568 343.036 390.285 340.062C390.285 339.894 390.33 339.734 390.411 339.616C390.491 339.497 390.6 339.431 390.714 339.431C390.828 339.431 390.937 339.497 391.018 339.616C391.098 339.734 391.144 339.894 391.144 340.062C391.44 342.818 392.202 345.422 393.359 347.634C395.472 352.681 398.1 358.916 396.503 367.396C395.678 371.712 397.035 375.346 398.615 379.561C400.388 383.531 401.414 388.121 401.587 392.863C401.425 395.537 400.948 398.151 400.178 400.586C398.959 405.179 397.825 409.521 399.903 413.206C399.944 413.262 399.977 413.331 400 413.407C400.022 413.483 400.033 413.564 400.033 413.647C400.033 413.73 400.022 413.812 400 413.888C399.977 413.964 399.944 414.032 399.903 414.089C399.856 414.137 399.803 414.169 399.746 414.182C399.69 414.195 399.632 414.189 399.577 414.165Z" fill="#263238"/>
<path d="M276.015 432.791L274.795 439.631L272.15 438.243L273.559 430.974L276.015 432.791Z" fill="#407BFF"/>
<path opacity="0.7" d="M276.015 432.791L274.795 439.631L272.15 438.243L273.559 430.974L276.015 432.791Z" fill="white"/>
<path d="M279.381 435.618C279.284 435.644 279.186 435.644 279.089 435.618C277.603 434.769 275.955 434.769 274.469 435.618C274.367 435.691 274.257 435.734 274.144 435.745C274.031 435.755 273.918 435.733 273.811 435.679C273.704 435.625 273.606 435.541 273.521 435.43C273.436 435.32 273.367 435.187 273.318 435.037C273.268 434.89 273.239 434.73 273.233 434.566C273.226 434.402 273.241 434.238 273.278 434.083C273.315 433.928 273.372 433.785 273.447 433.663C273.521 433.541 273.612 433.442 273.713 433.372C275.626 432.247 277.76 432.247 279.673 433.372C279.901 433.429 280.104 433.616 280.237 433.893C280.371 434.17 280.424 434.514 280.386 434.848C280.347 435.183 280.219 435.481 280.031 435.678C279.843 435.874 279.609 435.953 279.381 435.896V435.618Z" fill="#407BFF"/>
<path d="M156.797 806.713C156.797 806.713 164.956 780.565 155.629 754.77C146.303 728.976 143.606 722.918 149.549 717.618C155.492 712.318 158.223 738.264 158.223 738.264C161.163 726.548 161.464 713.754 159.082 701.768C154.96 683.116 152.366 652.727 158 649.471C163.633 646.216 159.082 687.331 163.994 701.414C166.485 691.556 168.096 681.265 168.786 670.799C169.456 655.832 168.408 631.905 172.857 625.746C177.305 619.588 180.174 623.879 175.794 656.942C173.161 676.7 171.707 696.757 171.448 716.886C171.448 716.886 181.118 673.499 187.628 672.237C194.138 670.975 194.12 685.034 188.555 697.199C182.99 709.365 172.256 731.222 170.504 742.453C170.504 742.453 181.135 709.819 190.685 719.738C200.235 729.657 182.372 749.47 174.403 756.587C166.433 763.705 160.902 808.379 160.902 808.379L156.797 806.713Z" fill="#407BFF"/>
<path opacity="0.2" d="M156.797 806.713C156.797 806.713 164.956 780.565 155.629 754.77C146.303 728.976 143.606 722.918 149.549 717.618C155.492 712.318 158.223 738.264 158.223 738.264C161.163 726.548 161.464 713.754 159.082 701.768C154.96 683.116 152.366 652.727 158 649.471C163.633 646.216 159.082 687.331 163.994 701.414C166.485 691.556 168.096 681.265 168.786 670.799C169.456 655.832 168.408 631.905 172.857 625.746C177.305 619.588 180.174 623.879 175.794 656.942C173.161 676.7 171.707 696.757 171.448 716.886C171.448 716.886 181.118 673.499 187.628 672.237C194.138 670.975 194.12 685.034 188.555 697.199C182.99 709.365 172.256 731.222 170.504 742.453C170.504 742.453 181.135 709.819 190.685 719.738C200.235 729.657 182.372 749.47 174.403 756.587C166.433 763.705 160.902 808.379 160.902 808.379L156.797 806.713Z" fill="black"/>
<path d="M163.17 817.44C163.17 817.44 155.217 791.115 164.75 765.522C174.282 739.929 177.03 733.948 171.139 728.521C165.248 723.095 162.294 748.965 162.294 748.965C159.447 737.204 159.249 724.409 161.727 712.469C166.004 693.893 168.855 663.58 163.238 660.198C157.622 656.816 161.847 698.057 156.832 711.99C154.416 702.083 152.886 691.758 152.28 681.273C151.731 666.281 152.984 642.379 148.57 636.145C144.156 629.911 141.271 634.101 145.393 667.265C147.861 687.078 149.148 707.169 149.24 727.31C149.24 727.31 139.914 683.721 133.438 682.308C126.963 680.895 126.843 694.928 132.305 707.244C137.767 719.561 148.313 741.62 149.979 752.877C149.979 752.877 139.673 720.066 129.986 729.809C120.299 739.551 138.059 759.717 145.96 767.011C153.86 774.306 159.047 819.08 159.047 819.08L163.17 817.44Z" fill="#407BFF"/>
<path d="M126.585 798.687H192.214L186.906 867.691H131.91L126.585 798.687Z" fill="#263238"/>
</svg>
